<svg width="200" height="200" viewBox="0 0 200 200" xmlns="http://www.w3.org/2000/svg">
  <defs>
    <linearGradient id="oliveGradient" x1="0%" y1="0%" x2="100%" y2="100%">
      <stop offset="0%" style="stop-color:#556B2F;stop-opacity:1" />
      <stop offset="100%" style="stop-color:#6B8E23;stop-opacity:1" />
    </linearGradient>
  </defs>
  
  <!-- Círculo exterior con doble borde -->
  <circle cx="100" cy="100" r="95" fill="white" stroke="#556B2F" stroke-width="3"/>
  <circle cx="100" cy="100" r="90" fill="white" stroke="#556B2F" stroke-width="1"/>
  
  <!-- Timbre de servicio -->
  <g transform="translate(100, 70)">
    <!-- Cuerpo del timbre -->
    <ellipse cx="0" cy="0" rx="12" ry="15" fill="#556B2F"/>
    
    <!-- Interior del timbre -->
    <ellipse cx="0" cy="0" rx="8" ry="11" fill="white" opacity="0.9"/>
    
    <!-- Badajo del timbre -->
    <circle cx="0" cy="5" r="2" fill="#556B2F"/>
    <rect x="-0.5" y="5" width="1" height="6" fill="#556B2F"/>
    <circle cx="0" cy="11" r="1.5" fill="#556B2F"/>
    
    <!-- Soporte del timbre -->
    <rect x="-2" y="-8" width="4" height="6" fill="#556B2F"/>
    <rect x="-3" y="-10" width="6" height="3" rx="1.5" fill="#556B2F"/>
    
    <!-- Ondas de sonido -->
    <path d="M -15,0 Q -20,-5 -25,0 Q -20,5 -15,0" fill="none" stroke="#556B2F" stroke-width="1.5"/>
    <path d="M 15,0 Q 20,-5 25,0 Q 20,5 15,0" fill="none" stroke="#556B2F" stroke-width="1.5"/>
  </g>
  
  <!-- Texto "CHECKIN" -->
  <text x="100" y="115" font-family="Arial, sans-serif" font-size="18" font-weight="bold" text-anchor="middle" fill="#556B2F">
    CHECKIN
  </text>
  
  <!-- Texto "CALL CENTER 24hs" -->
  <text x="100" y="135" font-family="Arial, sans-serif" font-size="12" font-weight="normal" text-anchor="middle" fill="#556B2F">
    CALL CENTER 24hs
  </text>
  
  <!-- Línea bajo "CALL CENTER" -->
  <line x1="70" y1="140" x2="130" y2="140" stroke="#556B2F" stroke-width="1"/>
</svg> 